<?xml version="1.0" encoding="UTF-8" standalone="yes"?>
<!-- Created with sK1/UniConvertor (http://sk1project.org/) -->
<svg xmlns="http://www.w3.org/2000/svg" xmlns:xlink="http://www.w3.org/1999/xlink"
  width="108.8pt" height="121.6pt" viewBox="0 0 108.8 121.6"
  fill-rule="evenodd">
<g>
<path style="stroke:none; fill:#010101" d="M 0 0L 0 121.6L 108.8 121.6L 108.8 0L 0 0z"/>
<path style="stroke:none; fill:#939393" d="M 60.8 10.4C 60.0114 11.5828 60 11.3626 60 12.8C 61.0314 11.6459 61.1207 11.813 60.8 10.4z"/>
<path style="stroke:none; fill:#b5b5b5" d="M 61.6 10.4L 61.6 11.2L 66.4 12C 64.7546 10.7345 63.69 10.5395 61.6 10.4z"/>
<path style="stroke:none; fill:#383838" d="M 61.6 11.2L 61.6 12L 64.8 12C 63.5951 11.4536 62.9482 11.3393 61.6 11.2z"/>
<path style="stroke:none; fill:#c5c5c5" d="M 66.9334 12.2666C 66.5778 12.6222 67.4222 12.5778 67.4666 12.5334C 67.8222 12.1778 66.9778 12.2222 66.9334 12.2666z"/>
<path style="stroke:none; fill:#838383" d="M 67.7334 13.0666C 67.3778 13.4222 68.2222 13.3778 68.2666 13.3334C 68.6222 12.9778 67.7778 13.0222 67.7334 13.0666z"/>
<path style="stroke:none; fill:#b5b5b5" d="M 68.2666 14.1334C 68.2222 14.1778 68.1778 15.0222 68.5334 14.6666C 68.5778 14.6222 68.6222 13.7778 68.2666 14.1334z"/>
<path style="stroke:none; fill:#757575" d="M 67.4666 14.9334C 67.4222 14.9778 67.3778 15.8222 67.7334 15.4666C 67.7778 15.4222 67.8222 14.5778 67.4666 14.9334z"/>
<path style="stroke:none; fill:#a7a7a7" d="M 67.2 16L 67.2 18.4L 68 18.4C 67.799 17.2388 67.7478 16.9986 67.2 16z"/>
<path style="stroke:none; fill:#272727" d="M 49.6 20.8C 55.6094 18.9249 60.3228 19.8552 66.4 20.8C 65.0895 18.943 63.3217 18.2303 61.6 16.8C 57.3814 18.1135 52.5538 17.3403 49.6 20.8z"/>
<path style="stroke:none; fill:#383838" d="M 66.1334 17.8666C 65.7778 18.2222 66.6222 18.1778 66.6666 18.1334C 67.0222 17.7778 66.1778 17.8222 66.1334 17.8666z"/>
<path style="stroke:none; fill:#939393" d="M 65.8666 18.9334C 65.8222 18.9778 65.7778 19.8222 66.1334 19.4666C 66.1778 19.4222 66.2222 18.5778 65.8666 18.9334z"/>
<path style="stroke:none; fill:#c5c5c5" d="M 66.6666 18.9334C 66.6222 18.9778 66.5778 19.8222 66.9334 19.4666C 66.9778 19.4222 67.0222 18.5778 66.6666 18.9334z"/>
<path style="stroke:none; fill:#5a5a5a" d="M 67.2 18.4L 68 19.2L 67.2 18.4M 33.3334 20.2666C 32.9778 20.6222 33.8222 20.5778 33.8666 20.5334C 34.2222 20.1778 33.3778 20.2222 33.3334 20.2666z"/>
<path style="stroke:none; fill:#383838" d="M 38.4 20L 38.4 20.8C 40.0334 21.5156 41.4622 22.029 43.2 22.4L 43.2 21.6C 41.5666 20.8844 40.1378 20.371 38.4 20z"/>
<path style="stroke:none; fill:#5a5a5a" d="M 66.4 20L 66.4 20.8C 67.8405 21.2494 68.8974 21.4593 70.4 21.6L 70.4 20.8L 66.4 20z"/>
<path style="stroke:none; fill:#8a8a8a" d="M 20.8 20.8L 21.6 21.6L 20.8 20.8z"/>
<path style="stroke:none; fill:#ffffff" d="M 20 21.6L 20 22.4C 22.1674 22.9183 24.1724 23.1534 26.4 23.2C 24.6751 20.7677 22.7728 21.0042 20 21.6z"/>
<path style="stroke:none; fill:#939393" d="M 24.8 20.8L 25.6 21.6L 24.8 20.8z"/>
<path style="stroke:none; fill:#383838" d="M 26.6666 21.3334C 26.6222 21.3778 26.5778 22.2222 26.9334 21.8666C 26.9778 21.8222 27.0222 20.9778 26.6666 21.3334M 29.6 20.8L 29.6 21.6L 32 21.6C 31.0014 21.0522 30.7613 21.001 29.6 20.8z"/>
<path style="stroke:none; fill:#464646" d="M 44.5334 21.0666C 44.1778 21.4222 45.0222 21.3778 45.0666 21.3334C 45.4222 20.9778 44.5778 21.0222 44.5334 21.0666z"/>
<path style="stroke:none; fill:#272727" d="M 46.4 20.8L 46.4 21.6L 49.6 21.6C 48.3952 21.0536 47.7482 20.9393 46.4 20.8z"/>
<path style="stroke:none; fill:#c5c5c5" d="M 19.2 21.6C 18.0022 23.5755 17.5732 24.2663 20 24.8C 19.8455 23.579 19.7045 22.6978 19.2 21.6z"/>
<path style="stroke:none; fill:#5a5a5a" d="M 70.4 21.6L 70.4 22.4C 72.5946 23.0334 73.6663 23.913 75.2 25.6C 75.0466 22.387 73.4485 21.835 70.4 21.6z"/>
<path style="stroke:none; fill:#8a8a8a" d="M 19.2 24L 20 24.8C 20.9562 23.8218 21.0531 23.664 21.6 22.4C 20.336 22.9469 20.1782 23.0438 19.2 24z"/>
<path style="stroke:none; fill:#c5c5c5" d="M 21.6 23.2C 22.6512 24.4943 23.1018 24.5546 24.8 24.8L 24.8 24L 21.6 23.2z"/>
<path style="stroke:none; fill:#a7a7a7" d="M 22.4 23.2L 22.4 24L 27.2 24.8C 25.5547 23.5345 24.49 23.3395 22.4 23.2z"/>
<path style="stroke:none; fill:#757575" d="M 18.4 24.8L 19.2 25.6L 18.4 24.8z"/>
<path style="stroke:none; fill:#8a8a8a" d="M 27.2 24.8L 27.2 25.6L 32.8 25.6C 30.9347 24.8124 29.2346 24.815 27.2 24.8z"/>
<path style="stroke:none; fill:#464646" d="M 32.8 24.8L 32.8 25.6C 35.7254 26.4647 38.5594 26.3997 41.6 26.4C 38.9229 25.2662 35.7021 25.1668 32.8 24.8z"/>
<path style="stroke:none; fill:#272727" d="M 41.6 25.6L 41.6 26.4L 48.8 26.4C 46.4882 25.4297 44.1007 25.6014 41.6 25.6z"/>
<path style="stroke:none; fill:#838383" d="M 77.6 28L 78.4 28.8L 77.6 28z"/>
<path style="stroke:none; fill:#686868" d="M 78.4 28.8C 79.3782 29.7562 79.536 29.8531 80.8 30.4C 79.8218 29.4438 79.664 29.3469 78.4 28.8z"/>
<path style="stroke:none; fill:#838383" d="M 81.3336 30.6666C 80.9776 31.0222 81.8224 30.9778 81.8664 30.9334C 82.2224 30.5778 81.3776 30.6222 81.3336 30.6666z"/>
<path style="stroke:none; fill:#1f1f1f" d="M 72.8 32L 72.8 32.8L 76 32.8C 74.6123 31.9599 74.4548 31.963 72.8 32z"/>
<path style="stroke:none; fill:#757575" d="M 82.4 31.2L 83.2 32L 82.4 31.2z"/>
<path style="stroke:none; fill:#8a8a8a" d="M 83.2 32L 84 32.8L 83.2 32z"/>
<path style="stroke:none; fill:#464646" d="M 72 32.8C 71.2114 33.9828 71.2 33.7626 71.2 35.2C 72.2314 34.0459 72.3207 34.213 72 32.8z"/>
<path style="stroke:none; fill:#939393" d="M 84 32.8L 84.8 33.6L 84 32.8z"/>
<path style="stroke:none; fill:#838383" d="M 84.8 33.6L 85.6 34.4L 84.8 33.6z"/>
<path style="stroke:none; fill:#272727" d="M 78.4 34.4L 78.4 35.2C 80.008 36.2091 81.4224 36.9518 83.2 37.6L 83.2 36.8C 81.592 35.7909 80.1776 35.0482 78.4 34.4z"/>
<path style="stroke:none; fill:#8a8a8a" d="M 85.6 34.4L 86.4 35.2L 85.6 34.4z"/>
<path style="stroke:none; fill:#464646" d="M 86.6664 35.7334C 86.6224 35.7778 86.5776 36.6222 86.9336 36.2666C 86.9776 36.2222 87.0224 35.3778 86.6664 35.7334z"/>
<path style="stroke:none; fill:#272727" d="M 69.6 36L 68.8 39.2L 69.6 39.2C 69.8469 37.7934 69.9252 37.3274 69.6 36z"/>
<path style="stroke:none; fill:#757575" d="M 87.2 36.8L 88 37.6L 87.2 36.8M 88 37.6L 88.8 38.4L 88 37.6z"/>
<path style="stroke:none; fill:#464646" d="M 88 38.4C 88.8824 39.5653 89.2344 39.9173 90.4 40.8C 89.6808 39.1011 89.6992 39.1194 88 38.4z"/>
<path style="stroke:none; fill:#757575" d="M 68.2666 40.5334C 68.2222 40.5778 68.1778 41.4222 68.5334 41.0666C 68.5778 41.0222 68.6222 40.1778 68.2666 40.5334z"/>
<path style="stroke:none; fill:#5a5a5a" d="M 85.6 40L 86.4 40.8L 85.6 40z"/>
<path style="stroke:none; fill:#383838" d="M 86.4 40.8L 86.4 44.8L 87.2 44.8C 87.3392 42.9855 87.3152 42.3348 86.4 40.8z"/>
<path style="stroke:none; fill:#757575" d="M 90.4 40.8C 90 43.1302 89.5016 44.2534 92 44.8C 91.5592 43.3399 91.1392 42.1186 90.4 40.8z"/>
<path style="stroke:none; fill:#686868" d="M 69.0666 42.1334C 69.0222 42.1778 68.9778 43.0222 69.3334 42.6666C 69.3778 42.6222 69.4222 41.7778 69.0666 42.1334z"/>
<path style="stroke:none; fill:#a7a7a7" d="M 91.2 42.4C 91.2 43.8374 91.2112 43.6172 92 44.8L 88 44C 88.88 46.575 90.2376 47.2158 92.8 48C 93.2912 45.4237 92.9928 44.3222 91.2 42.4z"/>
<path style="stroke:none; fill:#5a5a5a" d="M 87.2 43.2C 87.3344 45.122 87.3576 45.9682 88.8 47.2C 88.7712 45.5366 88.7552 45.379 89.6 44C 88.6016 43.4522 88.3616 43.401 87.2 43.2z"/>
<path style="stroke:none; fill:#b5b5b5" d="M 57.6 44C 58.0361 45.3082 57.8918 45.1639 59.2 45.6L 59.2 44L 57.6 44z"/>
<path style="stroke:none; fill:#383838" d="M 69.6 44L 69.6 46.4L 71.2 46.4L 71.2 44L 69.6 44z"/>
<path style="stroke:none; fill:#686868" d="M 92.8 44L 93.6 44.8L 92.8 44z"/>
<path style="stroke:none; fill:#5a5a5a" d="M 71.7334 46.6666C 71.3778 47.0222 72.2222 46.9778 72.2666 46.9334C 72.6222 46.5778 71.7778 46.6222 71.7334 46.6666z"/>
<path style="stroke:none; fill:#383838" d="M 72.8 47.2C 73.6827 48.3653 74.0347 48.7173 75.2 49.6C 74.4806 47.901 74.4989 47.9194 72.8 47.2z"/>
<path style="stroke:none; fill:#8a8a8a" d="M 74.4 49.6L 74.4 52L 75.2 52C 74.999 50.8388 74.9478 50.5986 74.4 49.6z"/>
<path style="stroke:none; fill:#464646" d="M 37.6 51.2L 37.6 53.6L 38.4 53.6C 38.199 52.4387 38.1478 52.1987 37.6 51.2z"/>
<path style="stroke:none; fill:#5a5a5a" d="M 66.4 51.2L 66.4 54.4L 67.2 54.4C 67.0607 53.0518 66.9464 52.4049 66.4 51.2z"/>
<path style="stroke:none; fill:#272727" d="M 67.4666 51.7334C 67.4222 51.7778 67.3778 52.6222 67.7334 52.2666C 67.7778 52.2222 67.8222 51.3778 67.4666 51.7334M 65.8666 52.5334C 65.8222 52.5778 65.7778 53.4222 66.1334 53.0666C 66.1778 53.0222 66.2222 52.1778 65.8666 52.5334z"/>
<path style="stroke:none; fill:#5a5a5a" d="M 68.5334 52.2666C 68.1778 52.6222 69.0222 52.5778 69.0666 52.5334C 69.4222 52.1778 68.5778 52.2222 68.5334 52.2666z"/>
<path style="stroke:none; fill:#838383" d="M 73.6 52L 74.4 52.8L 73.6 52z"/>
<path style="stroke:none; fill:#5a5a5a" d="M 46.4 52.8L 46.4 53.6L 55.2 53.6C 52.4541 52.4478 49.3602 52.8 46.4 52.8z"/>
<path style="stroke:none; fill:#686868" d="M 70.4 52.8L 70.4 53.6L 73.6 53.6C 72.3952 53.0536 71.7482 52.9393 70.4 52.8z"/>
<path style="stroke:none; fill:#757575" d="M 43.2 55.2L 45.6 54.4C 44.1774 53.6356 43.9829 53.787 43.2 55.2z"/>
<path style="stroke:none; fill:#8a8a8a" d="M 64.8 53.6C 65.2361 54.9082 65.0918 54.7639 66.4 55.2L 66.4 53.6L 64.8 53.6z"/>
<path style="stroke:none; fill:#464646" d="M 42.4 54.4L 42.4 56L 44 56C 43.5639 54.6918 43.7082 54.8361 42.4 54.4z"/>
<path style="stroke:none; fill:#383838" d="M 37.0666 55.7334C 37.0222 55.7778 36.9778 56.6222 37.3334 56.2666C 37.3778 56.2222 37.4222 55.3778 37.0666 55.7334M 56 55.2L 56 57.6L 56.8 57.6C 56.599 56.4387 56.5478 56.1986 56 55.2M 64.8 55.2L 64.8 58.4L 65.6 58.4L 66.4 55.2L 64.8 55.2z"/>
<path style="stroke:none; fill:#757575" d="M 42.4 56L 41.6 65.6L 42.4 65.6C 42.8124 62.337 43.7041 59.1148 42.4 56M 64.8 58.4L 64.8 62.4L 65.6 62.4C 65.5299 60.8287 65.4231 59.8153 64.8 58.4z"/>
<path style="stroke:none; fill:#383838" d="M 56 60L 56 64L 56.8 64C 56.7299 62.4287 56.6231 61.4152 56 60M 64 60.8C 64.3246 62.4739 64.1734 62.4158 65.6 63.2C 65.047 62.0893 64.8123 61.7114 64 60.8z"/>
<path style="stroke:none; fill:#838383" d="M 64 63.2L 64 65.6L 64.8 65.6C 64.599 64.4387 64.5478 64.1986 64 63.2z"/>
<path style="stroke:none; fill:#464646" d="M 36 64L 36 66.4L 36.8 66.4C 36.599 65.2387 36.5478 64.9986 36 64z"/>
<path style="stroke:none; fill:#383838" d="M 41.3334 65.8666C 40.9778 66.2222 41.8222 66.1778 41.8666 66.1334C 42.2222 65.7778 41.3778 65.8222 41.3334 65.8666z"/>
<path style="stroke:none; fill:#464646" d="M 63.7334 65.8666C 63.3778 66.2222 64.2222 66.1778 64.2666 66.1334C 64.6222 65.7778 63.7778 65.8222 63.7334 65.8666z"/>
<path style="stroke:none; fill:#939393" d="M 40.8 66.4L 40.8 68.8L 41.6 68.8C 41.399 67.6387 41.3478 67.3986 40.8 66.4z"/>
<path style="stroke:none; fill:#8a8a8a" d="M 63.4666 66.9334C 63.4222 66.9778 63.3778 67.8222 63.7334 67.4666C 63.7778 67.4222 63.8222 66.5778 63.4666 66.9334z"/>
<path style="stroke:none; fill:#464646" d="M 62.9334 68.2666C 62.5778 68.6222 63.4222 68.5778 63.4666 68.5334C 63.8222 68.1778 62.9778 68.2222 62.9334 68.2666M 40 68.8L 40 70.4C 41.3082 69.9639 41.164 70.1081 41.6 68.8L 40 68.8z"/>
<path style="stroke:none; fill:#757575" d="M 62.4 68.8L 62.4 71.2L 63.2 71.2C 62.999 70.0387 62.9478 69.7986 62.4 68.8z"/>
<path style="stroke:none; fill:#464646" d="M 35.2 69.6L 34.4 72.8L 35.2 72.8C 35.4469 71.3934 35.5252 70.9274 35.2 69.6z"/>
<path style="stroke:none; fill:#a7a7a7" d="M 35.2 71.2L 35.2 72C 37.2086 71.7132 38.7986 71.678 40.8 72C 39.1422 70.1083 37.5167 70.5326 35.2 71.2z"/>
<path style="stroke:none; fill:#dfdfdf" d="M 33.6 71.2L 34.4 72L 33.6 71.2z"/>
<path style="stroke:none; fill:#1f1f1f" d="M 36.8 71.2L 36.8 72L 40 72C 38.7952 71.4536 38.1482 71.3393 36.8 71.2z"/>
<path style="stroke:none; fill:#8a8a8a" d="M 61.8666 71.7334C 61.8222 71.7778 61.7778 72.6222 62.1334 72.2666C 62.1778 72.2222 62.2222 71.3778 61.8666 71.7334z"/>
<path style="stroke:none; fill:#686868" d="M 32 72.8C 33.5302 75.7078 35.3307 75.6892 38.4 75.2L 38.4 74.4L 33.6 74.4L 34.4 72C 32.9626 72 33.1828 72.0114 32 72.8z"/>
<path style="stroke:none; fill:#010101" d="M 33.6 74.4L 40 74.4L 40 72C 37.2518 72.0661 35.2437 72.0725 33.6 74.4z"/>
<path style="stroke:none; fill:#5a5a5a" d="M 40 72L 40 75.2L 40.8 75.2C 40.6607 73.8518 40.5464 73.2048 40 72z"/>
<path style="stroke:none; fill:#a7a7a7" d="M 60.8 72.8L 61.6 73.6L 60.8 72.8z"/>
<path style="stroke:none; fill:#8a8a8a" d="M 60 73.6L 60.8 74.4L 60 73.6z"/>
<path style="stroke:none; fill:#939393" d="M 32.5334 74.6666C 32.1778 75.0222 33.0222 74.9778 33.0666 74.9334C 33.4222 74.5778 32.5778 74.6222 32.5334 74.6666z"/>
<path style="stroke:none; fill:#383838" d="M 38.4 74.4C 39.3782 75.3562 39.536 75.4531 40.8 76C 39.8218 75.0438 39.664 74.9469 38.4 74.4M 59.7334 74.6666C 59.3778 75.0222 60.2222 74.9778 60.2666 74.9334C 60.6222 74.5778 59.7778 74.6222 59.7334 74.6666z"/>
<path style="stroke:none; fill:#939393" d="M 59.2 75.2L 60 76L 59.2 75.2z"/>
<path style="stroke:none; fill:#5a5a5a" d="M 58.4 76L 56.8 79.2C 58.2876 78.1876 58.6951 77.7781 58.4 76z"/>
<path style="stroke:none; fill:#383838" d="M 51.4666 77.3334C 51.4222 77.3778 51.3778 78.2222 51.7334 77.8666C 51.7778 77.8222 51.8222 76.9778 51.4666 77.3334z"/>
<path style="stroke:none; fill:#a7a7a7" d="M 56.8 79.2L 57.6 80L 56.8 79.2M 56 80.8L 56.8 81.6L 56 80.8z"/>
<path style="stroke:none; fill:#5a5a5a" d="M 48 81.6L 48.8 82.4L 48 81.6z"/>
<path style="stroke:none; fill:#686868" d="M 55.2 81.6C 54.4114 82.7832 54.4 82.5624 54.4 84C 55.4314 82.8456 55.5207 83.0128 55.2 81.6z"/>
<path style="stroke:none; fill:#272727" d="M 46.4 82.4C 45.9639 83.708 46.1082 83.564 44.8 84L 44.8 84.8C 46.5672 84.2528 46.9627 83.936 48 82.4L 46.4 82.4z"/>
<path style="stroke:none; fill:#939393" d="M 53.6 84L 54.4 84.8L 53.6 84z"/>
<path style="stroke:none; fill:#464646" d="M 44 84.8L 44 87.2L 44.8 87.2C 44.599 86.0384 44.5478 85.7984 44 84.8z"/>
<path style="stroke:none; fill:#686868" d="M 51.2 86.4C 52.464 85.8528 52.6218 85.756 53.6 84.8C 52.336 85.3472 52.1782 85.444 51.2 86.4z"/>
<path style="stroke:none; fill:#464646" d="M 49.8666 86.9336C 49.8222 86.9776 49.7778 87.8224 50.1334 87.4664C 50.1778 87.4224 50.2222 86.5776 49.8666 86.9336z"/>
<path style="stroke:none; fill:#a7a7a7" d="M 50.4 86.4L 51.2 87.2L 50.4 86.4z"/>
<path style="stroke:none; fill:#5a5a5a" d="M 43.2 87.2C 42.1304 89.1832 41.747 90.552 41.6 92.8L 43.2 92.8C 43.3409 90.8568 43.6525 89.072 43.2 87.2z"/>
<path style="stroke:none; fill:#a7a7a7" d="M 48.5334 87.4664C 48.1778 87.8224 49.0222 87.7776 49.0666 87.7336C 49.4222 87.3776 48.5778 87.4224 48.5334 87.4664z"/>
<path style="stroke:none; fill:#838383" d="M 47.2 88C 46.0185 89.8584 44.8847 91.5896 44 93.6C 46.2114 91.9624 47.5294 90.4416 48.8 88L 47.2 88z"/>
<path style="stroke:none; fill:#a7a7a7" d="M 42.9334 93.0664C 42.5778 93.4224 43.4222 93.3776 43.4666 93.3336C 43.8222 92.9776 42.9778 93.0224 42.9334 93.0664z"/>
</g>
</svg>